<?xml version="1.0" encoding="UTF-8"?>
<svg width="80px" height="79px" viewBox="0 0 80 79" version="1.1" xmlns="http://www.w3.org/2000/svg" xmlns:xlink="http://www.w3.org/1999/xlink">
    <!-- Generator: Sketch 42 (36781) - http://www.bohemiancoding.com/sketch -->
    <title>shutterstock_242357188</title>
    <desc>Created with Sketch.</desc>
    <defs></defs>
    <g id="Page-1" stroke="none" stroke-width="1" fill="none" fill-rule="evenodd">
        <g id="Artboard" transform="translate(-604.000000, -424.000000)" fill="#D5283D">
            <g id="shutterstock_242357188" transform="translate(604.000000, 424.000000)">
                <g id="Group">
                    <path d="M4.419,54.587 C4.419,54.121 4.797,53.743 5.263,53.743 C5.729,53.743 6.108,54.121 6.108,54.587 C6.108,55.053 5.729,55.431 5.263,55.431 C4.797,55.431 4.419,55.053 4.419,54.587 Z M68.971,71.852 L61.212,71.852 L61.212,74.658 L9.285,74.658 L9.285,34.516 L29.993,34.516 L29.993,30.649 L4.1,30.649 C2.174,30.649 0.608,32.215 0.608,34.141 L0.608,75.032 C0.608,76.958 2.174,78.526 4.1,78.526 L66.847,78.526 C68.773,78.526 70.34,76.958 70.34,75.032 L70.34,71.852 L68.971,71.852 L68.971,71.852 Z" id="Fill-61"></path>
                    <path d="M35.743,34.516 L35.743,8.914 L75.885,8.914 L75.885,60.841 L35.743,60.841 L35.743,34.516 Z M54.969,4.892 C54.969,4.426 55.347,4.048 55.814,4.048 C56.28,4.048 56.658,4.426 56.658,4.892 C56.658,5.359 56.28,5.737 55.814,5.737 C55.347,5.737 54.969,5.359 54.969,4.892 Z M57.831,64.985 C57.831,66.099 56.928,67.002 55.814,67.002 C54.7,67.002 53.796,66.099 53.796,64.985 C53.796,63.871 54.7,62.968 55.814,62.968 C56.928,62.968 57.831,63.871 57.831,64.985 Z M76.259,0.236 L35.368,0.236 C33.442,0.236 31.875,1.803 31.875,3.729 L31.875,66.476 C31.875,68.402 33.442,69.969 35.368,69.969 L76.259,69.969 C78.185,69.969 79.752,68.402 79.752,66.476 L79.752,3.729 C79.752,1.803 78.185,0.236 76.259,0.236 L76.259,0.236 Z" id="Fill-62"></path>
                    <path d="M28.522,7.786 L26.603,7.963 C22.148,8.539 17.987,10.576 14.786,13.776 C11.586,16.977 9.549,21.138 8.973,25.593 L12.392,22.845 C12.7,22.598 13.15,22.642 13.403,22.945 C13.662,23.255 13.618,23.718 13.305,23.973 L8.565,27.832 C8.304,28.044 7.917,27.988 7.727,27.71 L4.253,22.62 C4.034,22.299 4.11,21.863 4.425,21.635 C4.756,21.396 5.219,21.481 5.443,21.822 L7.587,25.074 C8.261,20.429 10.418,16.101 13.765,12.754 C17.111,9.408 21.44,7.251 26.084,6.577 L28.253,6.398 C28.783,6.76 28.926,7.289 28.522,7.786" id="Fill-63"></path>
                </g>
            </g>
        </g>
    </g>
</svg>