<?xml version="1.0" encoding="UTF-8"?>
<svg width="48px" height="48px" viewBox="0 0 48 48" version="1.1" xmlns="http://www.w3.org/2000/svg" xmlns:xlink="http://www.w3.org/1999/xlink">
    <!-- Generator: Sketch 42 (36781) - http://www.bohemiancoding.com/sketch -->
    <title>Shape</title>
    <desc>Created with Sketch.</desc>
    <defs></defs>
    <g id="Page-1" stroke="none" stroke-width="1" fill="none" fill-rule="evenodd">
        <g id="Artboard-2" transform="translate(-118.000000, -182.000000)" fill-rule="nonzero" fill="#0C0C0C">
            <path d="M146.228,205.986 L165.092,187.122 C166.264,185.951 166.264,184.051 165.092,182.88 C163.92,181.708 162.022,181.708 160.85,182.88 L141.986,201.744 L123.121,182.88 C121.949,181.708 120.051,181.708 118.879,182.88 C117.707,184.051 117.707,185.951 118.879,187.122 L137.744,205.986 L118.879,224.85 C117.707,226.021 117.707,227.921 118.879,229.092 C119.465,229.677 120.233,229.97 121,229.97 C121.767,229.97 122.535,229.677 123.121,229.091 L141.986,210.227 L160.85,229.091 C161.436,229.677 162.204,229.97 162.971,229.97 C163.738,229.97 164.506,229.677 165.092,229.091 C166.264,227.92 166.264,226.02 165.092,224.849 L146.228,205.986 Z" id="Shape"></path>
        </g>
    </g>
</svg>