<svg xmlns="http://www.w3.org/2000/svg" width="26" height="31" viewBox="0 0 26 31"><path fill="#fff" d="M11.81 1.23a.82.82 0 0 0 0 1.14L14.1 4.7A13.09 13.09 0 0 0 0 17.82c0 7.27 5.82 13.17 13 13.17s13-5.9 13-13.17c0-3.14-1.09-6.02-2.9-8.28-.82-.81-1.79.24-1.01 1.06a11.75 11.75 0 0 1 2.47 7.22c0 6.46-5.18 11.7-11.56 11.7a11.63 11.63 0 0 1-11.55-11.7A11.63 11.63 0 0 1 14.02 6.16l-2.21 2.26a.82.82 0 0 0 0 1.14c.31.31.81.31 1.12 0l3.47-3.53a.8.8 0 0 0 .22-.63.82.82 0 0 0-.22-.64l-3.47-3.53a.78.78 0 0 0-1.12 0z"/></svg>